<svg xmlns="http://www.w3.org/2000/svg" width="201.333" height="201.333" preserveAspectRatio="xMidYMid meet" version="1.0" viewBox="0 0 151 151"><metadata>Created by potrace 1.14, written by Peter Selinger 2001-2017</metadata><g fill="#000" stroke="none"><path d="M691 1263 c-23 -21 -67 -119 -185 -405 -86 -207 -156 -389 -156 -405 0 -63 136 -175 257 -213 79 -24 215 -27 286 -5 114 34 256 142 272 207 4 17 -34 120 -135 363 -190 458 -188 454 -221 471 -44 22 -85 18 -118 -13z m213 -466 c75 -180 136 -330 136 -333 0 -16 -71 -69 -130 -97 -57 -28 -75 -32 -150 -31 -105 0 -179 26 -244 87 l-46 42 142 338 c77 186 144 334 149 330 4 -4 68 -155 143 -336z" transform="translate(0.000000,151.000000) scale(0.100000,-0.100000)"/><path d="M661 700 c-56 -12 -62 -19 -99 -105 l-29 -70 61 30 c56 28 69 30 166 30 99 0 108 -2 163 -32 32 -18 57 -27 54 -20 -49 124 -63 150 -87 159 -36 14 -178 19 -229 8z" transform="translate(0.000000,151.000000) scale(0.100000,-0.100000)"/></g></svg>