<svg xmlns="http://www.w3.org/2000/svg" xmlns:svg="http://www.w3.org/2000/svg" id="svg2" width="53.974" height="53.973" version="1.1" viewBox="0 0 50.601 50.6"><metadata id="metadata7"/><g id="layer1" transform="translate(-69.825341,-97.287174)"><g id="layer1-0" transform="translate(85.965634,96.550854)"><g id="g3549" transform="translate(-153.04286,347.32649)"><g id="g3705" transform="translate(146.75971,-258.59017)"><rect style="fill:none" id="rect3602" width="431.3" height="59.1" x="3" y="1" class="st0"/><g id="g3604" transform="translate(-12.857143,-90)"><path style="fill:#000" id="path3618" d="M 28.3,2 C 14.3,2 3,13.3 3,27.3 c 0,14 11.3,25.3 25.3,25.3 14,0 25.3,-11.3 25.3,-25.3 C 53.7,13.3 42.3,2 28.3,2 Z M 17.9,7.5 c 1.7,-1.9 4.6,-3.4 8.5,-3.8 0.6,0 1.2,-0.1 1.9,-0.1 6.4,0 12.1,2.7 16.2,6.9 C 43.9,10.3 43.1,10 41.6,10 29.1,10 24.9,34.7 21.1,34.6 18.7,34.7 10.2,16.2 17.9,7.5 Z M 28.3,48.7 C 15.8,48.7 5.8,38.6 5.8,26.2 5.8,19 9.2,12.5 14.7,8.3 c -9.1,10.2 1,32.1 6.8,32.7 7.2,0.4 10,-22.5 18.5,-25.4 6.4,-2.4 11.2,7.2 8.3,17.9 -3,9.2 -10.5,15.1 -20,15.2 z M 28.8,9.8 c 3.5,0 6.4,-0.9 6.4,-2 0,-1.1 -2.9,-2 -6.4,-2 -3.5,0 -6.4,0.9 -6.5,2 0.1,1.1 3,2 6.5,2 z" class="st1"/></g></g></g></g></g><style id="style3444" type="text/css">.st0{fill:none}.st1{fill:#fff}</style><style id="style3600" type="text/css">.st0{fill:none}.st1{fill:#fff}</style><style id="style3444-9" type="text/css">.st0{fill:none}.st1{fill:#000}</style><style id="style3600-5" type="text/css">.st0{fill:none}.st1{fill:#000}</style></svg>